<?xml version="1.0" encoding="UTF-8" standalone="no"?>
<svg
   xmlns:dc="http://purl.org/dc/elements/1.1/"
   xmlns:cc="http://creativecommons.org/ns#"
   xmlns:rdf="http://www.w3.org/1999/02/22-rdf-syntax-ns#"
   xmlns:svg="http://www.w3.org/2000/svg"
   xmlns="http://www.w3.org/2000/svg"
   xmlns:sodipodi="http://sodipodi.sourceforge.net/DTD/sodipodi-0.dtd"
   xmlns:inkscape="http://www.inkscape.org/namespaces/inkscape"
   viewBox="0 0 32 32"
   version="1.1"
   id="svg1009"
   sodipodi:docname="app-icon-foreground-release-in-house.svg"
   inkscape:export-filename="app-icon-foreground-release-in-house.png"
   inkscape:export-xdpi="7200"
   inkscape:export-ydpi="7200"
   inkscape:version="1.0.2 (e86c8708, 2021-01-15)">
  <metadata
     id="metadata1015">
    <rdf:RDF>
      <cc:Work
         rdf:about="">
        <dc:format>image/svg+xml</dc:format>
        <dc:type
           rdf:resource="http://purl.org/dc/dcmitype/StillImage" />
        <dc:title />
      </cc:Work>
    </rdf:RDF>
  </metadata>
  <defs
     id="defs1013" />
  <sodipodi:namedview
     pagecolor="#393939"
     bordercolor="#666666"
     borderopacity="1"
     objecttolerance="10"
     gridtolerance="10"
     guidetolerance="10"
     inkscape:pageopacity="0"
     inkscape:pageshadow="2"
     inkscape:window-width="2560"
     inkscape:window-height="1412"
     id="namedview1011"
     showgrid="false"
     inkscape:zoom="26.483359"
     inkscape:cx="27.833605"
     inkscape:cy="21.71733"
     inkscape:window-x="1920"
     inkscape:window-y="0"
     inkscape:window-maximized="0"
     inkscape:current-layer="fish"
     inkscape:document-rotation="0" />
  <g
     id="fish">
    <path
       d="m 7.9553439,18.114322 a 19.32,19.32 0 0 1 1,-2.6 20.18,20.18 0 0 1 1.1300101,-2.16 22.36,22.36 0 0 1 3.32,-4.2099934 l 0.09,-0.09 a 21.54,21.54 0 0 1 1.84,-1.62 c 0.23,-0.19 0.48,-0.36 0.72,-0.54 a 2,2 0 0 0 0.19,0.72 c 0.17,0.36 0.35,0.72 0.56,1.08 a 17.29,17.29 0 0 0 6.73,6.7799934 c 0.34,0.19 0.69,0.38 1.06,0.55 a 1.94,1.94 0 0 0 0.72,0.18 c -0.18,0.24 -0.35,0.49 -0.54,0.73 v 0 a 23.29,23.29 0 0 1 -1.62,1.83 l -0.09,0.09 a 21.91,21.91 0 0 1 -4.21,3.31 18.46,18.46 0 0 1 -2.15,1.14 v 0 a 19.31,19.31 0 0 1 -2.6,0.95 6.4,6.4 0 0 1 -1.79,0.26 h -0.16 a 4.6,4.6 0 0 1 -1.94,-0.44 4.22,4.22 0 0 1 -1.2200101,-0.84 3.92,3.92 0 0 1 -0.84,-1.22 4.6,4.6 0 0 1 -0.44,-1.94 6.45,6.45 0 0 1 0.24,-1.96 z"
       id="path998"
       style="fill:#53cccc;fill-opacity:1" />
    <path
       d="m 17.535354,5.8543286 a 17,17 0 0 1 10.58,-2.63 1,1 0 0 1 0.87,0.88 16.93,16.93 0 0 1 -2.63,10.5699934 1,1 0 0 1 -0.9,0.57 1,1 0 0 1 -0.43,-0.1 c -0.34,-0.16 -0.67,-0.33 -1,-0.52 a 16.37,16.37 0 0 1 -6.41,-6.3999934 c -0.19,-0.33 -0.36,-0.67 -0.52,-1 a 1,1 0 0 1 0.44,-1.37 z m 4.29,2.53 a 1,1 0 0 0 0.71,0.29 1,1 0 0 0 0.71,-1.71 1,1 0 0 0 -1.71,0.71 1,1 0 0 0 0.29,0.71 z"
       id="path1000"
       style="fill:#53cccc;fill-opacity:1" />
    <path
       d="m 19.375354,23.014322 a 22.93,22.93 0 0 0 4.39,-3.46 l 0.09,-0.09 c 0.43,-0.44 0.83,-0.89 1.22,-1.35 a 5.27,5.27 0 0 1 -5.28,6.19 5.28,5.28 0 0 1 -2,-0.42 c 0.52,-0.21 1.05,-0.54 1.58,-0.87 z"
       id="path1002"
       style="fill:#53cccc;fill-opacity:1" />
    <path
       d="m 1.5353439,22.284322 a 1,1 0 0 1 0.7,-0.71 l 4.46,-1.24 a 5.48,5.48 0 0 0 0.52,2.1 4.8,4.8 0 0 0 1,1.49 5.16,5.16 0 0 0 1.5200074,1 5.45,5.45 0 0 0 2.0700027,0.51 l -1.24,4.46 a 1,1 0 0 1 -0.7100015,0.7 1.07,1.07 0 0 1 -0.2500024,0 1,1 0 0 1 -0.7100062,-0.29 l -7.14,-7.14 a 1,1 0 0 1 -0.22,-0.88 z"
       id="path1004"
       style="fill:#53cccc;fill-opacity:1" />
    <path
       d="m 12.745354,8.3443286 -0.1,0.1 A 23.38,23.38 0 0 0 9.1753459,12.844322 c -0.320002,0.53 -0.600002,1.06 -0.860002,1.59 a 5.33,5.33 0 0 1 4.9500101,-7.3899934 5.45,5.45 0 0 1 0.83,0.08 c -0.45,0.38 -0.91,0.78 -1.35,1.22 z"
       id="path1006"
       style="fill:#53cccc;fill-opacity:1" />
  </g>
</svg>
