<svg xmlns="http://www.w3.org/2000/svg" xmlns:xlink="http://www.w3.org/1999/xlink" width="410.825" height="138.208" viewBox="0 0 410.825 138.208">
  <defs>
    <linearGradient id="linear-gradient" x1="0.5" x2="0.5" y2="1" gradientUnits="objectBoundingBox">
      <stop offset="0" stop-color="#0089bb"></stop>
      <stop offset="0.346" stop-color="#0089b9"></stop>
      <stop offset="1" stop-color="#0061a2"></stop>
    </linearGradient>
    <linearGradient id="linear-gradient-2" y1="0.5" x2="1" y2="0.5" gradientUnits="objectBoundingBox">
      <stop offset="0" stop-color="#fff"></stop>
      <stop offset="0" stop-color="#6b7073"></stop>
      <stop offset="0.084" stop-color="#5a5c61"></stop>
      <stop offset="0.251" stop-color="#3f3c44"></stop>
      <stop offset="0.424" stop-color="#2a222d"></stop>
      <stop offset="0.602" stop-color="#1b101c"></stop>
      <stop offset="0.789" stop-color="#110513"></stop>
      <stop offset="1" stop-color="#0f0210"></stop>
    </linearGradient>
  </defs>
  <g id="グループ_7" transform="translate(-97.279 -222.968)">
    <g id="グループ_5">
      <g id="グループ_4">
        <g id="グループ_3">
          <path id="パス_27" d="M252.3,269.352H209.8c-6.248,0-7.4,1.233-7.4,6.083v40.93c0,4.849,1.15,5.425,7.4,5.425h1.972c5.919,0,7.152-.576,7.152-5.425v-9.782c0-1.891.74-2.877,3.041-2.877h21.126c2.466,0,2.8-.74,2.8-3.535,0-2.3-.329-3.37-2.8-3.37H221.968c-2.3,0-3.041-.987-3.041-2.877v-14.79c0-1.891.74-2.877,3.041-2.877H252.3c2.466,0,2.794-.74,2.794-3.535C255.1,270.421,254.767,269.352,252.3,269.352Z" fill="#2b272a"></path>
          <path id="パス_28" d="M274.822,269.352h-4.439c-5.425,0-6.493-.082-6.493,4.439s1.068,4.439,6.493,4.439h4.439c5.754,0,6.9.082,6.9-4.439S280.576,269.352,274.822,269.352Z" fill="#2b272a"></path>
          <path id="パス_29" d="M273.507,282.669H271.7c-5.426,0-6.494.411-6.494,4.932v29.257c0,4.521,1.15,4.932,6.9,4.932h1.808c5.425,0,6.494-.411,6.494-4.932V287.6C280.412,283.08,279.261,282.669,273.507,282.669Z" fill="#2b272a"></path>
          <path id="パス_30" d="M320.361,288.663a124.617,124.617,0,0,0-17.262,1.069c-7.645,1.15-8.3,2.3-8.3,5.836v21.29c0,4.521,1.151,4.932,6.9,4.932h1.809c5.425,0,6.493-.411,6.493-4.932V296.883a2.276,2.276,0,0,1,2.056-2.548,33.148,33.148,0,0,1,6.658-.658c5.1,0,8.138,1.151,8.138,7.727v15.454c0,4.521,1.15,4.932,6.9,4.932h1.808c5.425,0,6.494-.411,6.494-4.932V301.075C342.062,291.951,334.5,288.663,320.361,288.663Z" fill="#2b272a"></path>
          <path id="パス_31" d="M389.408,315.871a97.987,97.987,0,0,1-10.6.74c-4.685,0-7.563-.411-7.563-5.836V296.883c0-1.562.411-2.3,2.3-2.3h13.07c1.973,0,2.219-.493,2.219-2.548,0-1.89-.246-2.548-2.219-2.548h-13.07c-1.891,0-2.3-.74-2.3-2.3v-3.452c0-4.521-1.15-4.932-6.9-4.932h-1.809c-5.425,0-6.494.411-6.494,4.932v26.715c0,8.96,5.179,12,18.824,12a92.152,92.152,0,0,0,14.55-.986c2.219-.411,2.466-.658,2.466-2.959C391.874,316.118,391.3,315.707,389.408,315.871Z" fill="#2b272a"></path>
          <path id="パス_32" d="M425.165,288.663a155.13,155.13,0,0,0-20.139,1.315c-2.22.411-2.466.74-2.466,3.042,0,2.383.575,2.959,2.466,2.712a116.488,116.488,0,0,1,16.029-1.4c6.494,0,10.6,0,10.6,5.178v1.316c0,1.643-.987,1.89-2.055,1.89h-8.3c-12.741,0-22.112.658-22.112,9.289,0,7.48,3.042,10.686,22.441,10.686a153.211,153.211,0,0,0,16.934-.9c7.644-1.069,8.3-2.549,8.3-6.083V299.513C446.866,291.869,441.605,288.663,425.165,288.663Zm6.494,25.975c0,1.891-.9,2.384-2.549,2.713a33.425,33.425,0,0,1-6,.493c-6.165,0-7.973-.657-7.973-5.507,0-4.028,2.219-4.521,7.4-4.521h7.07c.822,0,2.055.246,2.055,1.808Z" fill="#2b272a"></path>
          <path id="パス_33" d="M486.4,288.663a124.628,124.628,0,0,0-17.262,1.069c-7.645,1.15-8.3,2.3-8.3,5.836v21.29c0,4.521,1.151,4.932,6.9,4.932h1.808c5.425,0,6.494-.411,6.494-4.932V296.883a2.276,2.276,0,0,1,2.055-2.548,33.157,33.157,0,0,1,6.658-.658c5.1,0,8.138,1.151,8.138,7.727v15.454c0,4.521,1.151,4.932,6.9,4.932h1.808c5.426,0,6.494-.411,6.494-4.932V301.075C508.1,291.951,500.542,288.663,486.4,288.663Z" fill="#2b272a"></path>
        </g>
      </g>
    </g>
    <g id="グループ_6">
      <ellipse id="楕円形_1" cx="29.402" cy="3.009" rx="29.402" ry="3.009" transform="translate(134.022 355.158)" fill="#ccc"></ellipse>
      <path id="パス_34" d="M158.7,344.451c2.112.9.933-3.109.933-3.109l-3.88-18.808s4.731-8.344,7.806-12.792a1.4,1.4,0,0,1-.317-.277l-1.7-2.08a15.993,15.993,0,0,0-1.906.881,22.859,22.859,0,0,1-3.175,1.022l.078,2.668a1.609,1.609,0,0,1-1.079,1.505l-.446.11-1.519.335c-.1.02-.2.037-.293.057a1.624,1.624,0,0,1-1.643-.9l-1.056-2.407c-1.761.326-3.634.6-5.484.757l-.551,2.22a1.6,1.6,0,0,1-1.484,1.16c-.115,0-.229-.008-.344-.013l-1.665-.091-.277-.022a1.621,1.621,0,0,1-1.345-1.314l-.28-1.968a14.166,14.166,0,0,1-2.5-.521,8.869,8.869,0,0,1-1.773-.774,5.2,5.2,0,0,1-.7-1.081c-.011.018-.027.035-.038.054L132.4,312a1.605,1.605,0,0,1-1.659.732q-1.2-.378-2.378-.821a1.638,1.638,0,0,1-.829-1.577l.444-3.364a1.81,1.81,0,0,0-.953-1.756l-1.425-.72a1.774,1.774,0,0,0-1.964.286l-2.391,2.375a1.609,1.609,0,0,1-1.475.38c.97,1.668,2.034,3.309,3.176,4.916l-.167.358s.647,8.431,1.078,10.377.862,1.945,2.586,1.513c1.19-.3,4.227-.8,5.995-1.087a150.24,150.24,0,0,0,25.041,20.111C157.933,344.006,158.325,344.236,158.7,344.451Z" fill="url(#linear-gradient)"></path>
      <path id="パス_35" d="M144.334,307.42a38.847,38.847,0,1,1,38.848-38.846A38.89,38.89,0,0,1,144.334,307.42Zm-.16-68.275a29.269,29.269,0,1,0,29.27,29.269A29.3,29.3,0,0,0,144.174,239.145Z" fill="gray"></path>
      <path id="パス_36" d="M189.078,266.866a1.639,1.639,0,0,0-1.268-1.349l-3.328-.591a1.8,1.8,0,0,1-1.379-1.443l-.269-1.726a1.791,1.791,0,0,1,.873-1.792L186.7,258.4a1.613,1.613,0,0,0,.779-1.712c-.023-.081-.044-.164-.067-.245l-.448-1.491c-.048-.15-.1-.3-.146-.449a1.623,1.623,0,0,0-1.584-.976l-3.37.33a1.808,1.808,0,0,1-1.721-1.017l-.72-1.568a1.786,1.786,0,0,1,.353-1.96l2.457-2.316a1.616,1.616,0,0,0,.346-1.731q-.662-1.1-1.382-2.164a1.634,1.634,0,0,0-1.708-.412l-3.162,1.229a1.807,1.807,0,0,1-1.931-.514l-1.1-1.287a1.787,1.787,0,0,1-.187-1.983l1.739-2.892a1.619,1.619,0,0,0-.108-1.732q-.966-.915-1.984-1.774a1.639,1.639,0,0,0-1.728.084l-2.708,2.034a1.808,1.808,0,0,1-2,.025l-1.374-.927a1.787,1.787,0,0,1-.715-1.859l.9-3.255a1.621,1.621,0,0,0-.6-1.657q-1.134-.6-2.3-1.137a1.633,1.633,0,0,0-1.717.52l-2.061,2.692a1.81,1.81,0,0,1-1.918.565l-1.54-.508a1.785,1.785,0,0,1-1.191-1.6l-.016-3.376a1.609,1.609,0,0,0-1.119-1.462c-.2-.042-.4-.083-.593-.122l-1.227-.226c-.18-.03-.36-.061-.541-.09a1.632,1.632,0,0,0-1.6.961l-1.26,3.151a1.808,1.808,0,0,1-1.694,1.06s-1.341-.1-2.653-.1h-.054a4.174,4.174,0,0,1-.446-1.188l-.926-3.246a1.612,1.612,0,0,0-1.5-1.109c-.118.007-.236.014-.354.023l-1.618.143c-.142.015-.284.032-.427.049a1.626,1.626,0,0,0-1.273,1.352l-.362,3.368a1.809,1.809,0,0,1-1.346,1.477l-1.508.345a1.789,1.789,0,0,1-1.847-.747l-1.769-2.877a1.617,1.617,0,0,0-1.646-.687q-1.252.435-2.471.941a1.636,1.636,0,0,0-.756,1.592l.56,3.343a1.81,1.81,0,0,1-.9,1.787l-1.331.726a1.787,1.787,0,0,1-1.98-.221l-2.479-2.293a1.625,1.625,0,0,0-1.684-.263q-1.161.8-2.271,1.672a1.636,1.636,0,0,0-.256,1.691l1.441,3.07a1.8,1.8,0,0,1-.382,1.96l-1.067,1.037a1.792,1.792,0,0,1-1.968.319l-3.012-1.542a1.626,1.626,0,0,0-1.683.192q-.917,1.095-1.763,2.247a1.632,1.632,0,0,0,.213,1.685l2.213,2.563a1.8,1.8,0,0,1,.158,1.99l-.746,1.276a1.8,1.8,0,0,1-1.812.838l-3.319-.674a1.631,1.631,0,0,0-1.6.679q-.565,1.254-1.056,2.548a1.631,1.631,0,0,0,.65,1.616l2.822,1.87a1.8,1.8,0,0,1,.689,1.874l-.374,1.43a1.8,1.8,0,0,1-1.518,1.295l-3.376.247a1.623,1.623,0,0,0-1.38,1.182q-.062.4-.114.813l-.09.745c-.037.326-.071.654-.1.982a1.622,1.622,0,0,0,1.062,1.484l3.22,1.039a1.566,1.566,0,0,1,1.153,1.284v.455c0,.872.024,1.359.024,1.359a1.78,1.78,0,0,1-1.1,1.656l-3.19,1.151a1.629,1.629,0,0,0-1.015,1.514q.07.57.155,1.135l.048.318q.084.545.182,1.085a1.615,1.615,0,0,0,1.413,1.123l3.381.132a1.791,1.791,0,0,1,1.558,1.244l.425,1.442a1.807,1.807,0,0,1-.628,1.9l-2.762,1.969a1.635,1.635,0,0,0-.6,1.637q.532,1.275,1.138,2.513a1.626,1.626,0,0,0,1.608.606l3.291-.785a1.791,1.791,0,0,1,1.835.777l.811,1.294a1.806,1.806,0,0,1-.092,2l-2.128,2.64a1.639,1.639,0,0,0-.15,1.708q.866,1.1,1.8,2.143a1.624,1.624,0,0,0,1.695.14l2.95-1.64a1.786,1.786,0,0,1,1.975.255l1.151,1.051a1.81,1.81,0,0,1,.447,1.949l-1.335,3.114a1.644,1.644,0,0,0,.315,1.687q1.108.814,2.266,1.565a1.62,1.62,0,0,0,1.69-.313l2.4-2.375a1.785,1.785,0,0,1,1.971-.286l1.429.72a1.809,1.809,0,0,1,.956,1.756l-.446,3.364a1.637,1.637,0,0,0,.832,1.577q1.177.441,2.385.821a1.611,1.611,0,0,0,1.664-.732l1.671-2.938a1.788,1.788,0,0,1,1.82-.809l1.609.311a1.807,1.807,0,0,1,1.394,1.431l.478,3.357a1.626,1.626,0,0,0,1.35,1.314l.277.022,1.671.091c.115.005.229.01.344.013a1.61,1.61,0,0,0,1.49-1.16l.814-3.275a1.786,1.786,0,0,1,1.535-1.268l1.668-.132a1.808,1.808,0,0,1,1.729,1l1.366,3.1a1.628,1.628,0,0,0,1.647.9c.1-.02.2-.037.294-.057l1.524-.335.447-.11a1.609,1.609,0,0,0,1.083-1.505l-.1-3.372a1.791,1.791,0,0,1,1.135-1.638l1.606-.594a1.8,1.8,0,0,1,1.935.5l2.15,2.618a1.628,1.628,0,0,0,1.732.46q1.114-.561,2.2-1.178a1.617,1.617,0,0,0,.564-1.694l-1.007-3.226a1.791,1.791,0,0,1,.65-1.884l1.4-1.021a1.8,1.8,0,0,1,1.995-.045l2.776,1.939a1.628,1.628,0,0,0,1.759,0q.953-.867,1.854-1.788a1.625,1.625,0,0,0,.051-1.74l-1.839-2.833a1.789,1.789,0,0,1,.119-1.989l1.085-1.375a1.8,1.8,0,0,1,1.91-.582l3.193,1.118a1.627,1.627,0,0,0,1.714-.5q.651-1.039,1.247-2.115a1.619,1.619,0,0,0-.389-1.761l-2.536-2.233a1.794,1.794,0,0,1-.425-1.948l.676-1.63a1.8,1.8,0,0,1,1.679-1.077l3.377.215a1.615,1.615,0,0,0,1.556-1.057c.033-.111.064-.223.1-.335l.392-1.5c.025-.1.051-.207.076-.311a1.616,1.616,0,0,0-.838-1.7l-3.051-1.469a1.8,1.8,0,0,1-.938-1.762l.2-1.746A1.793,1.793,0,0,1,184.6,271.3l3.3-.7a1.567,1.567,0,0,0,1.214-1.077c0-.209.008-.417.008-.626C189.125,268.215,189.108,267.539,189.078,266.866ZM143.1,298.646a29.751,29.751,0,1,1,29.752-29.751A29.785,29.785,0,0,1,143.1,298.646Z" fill="url(#linear-gradient-2)"></path>
      <path id="パス_37" d="M187.809,265.523l-3.328-.59a1.8,1.8,0,0,1-1.379-1.444l-.269-1.726a1.792,1.792,0,0,1,.873-1.792L186.7,258.4a1.614,1.614,0,0,0,.779-1.712c-.023-.082-.044-.164-.067-.246l-.448-1.491q-.072-.225-.147-.448a1.624,1.624,0,0,0-.979-.885l-2.667.261a1.575,1.575,0,0,1-.628-.089l-.679.066a1.807,1.807,0,0,1-1.721-1.016l-.721-1.569a1.785,1.785,0,0,1,.354-1.959L182.231,247a1.616,1.616,0,0,0,.346-1.731q-.661-1.1-1.382-2.164a1.592,1.592,0,0,0-.517-.344l-3.046,1.184a1.74,1.74,0,0,1-1.238-.049l-.069.027a1.807,1.807,0,0,1-1.931-.515l-1.1-1.287a1.787,1.787,0,0,1-.187-1.983l1.739-2.892a1.618,1.618,0,0,0-.108-1.732q-.966-.915-1.984-1.773c-.038-.022-.084-.029-.124-.048a1.394,1.394,0,0,0-.3.154l-2.708,2.033a8.233,8.233,0,0,1-3.305,0l-1.374-.926a1.787,1.787,0,0,1-.715-1.859l.9-3.255a1.621,1.621,0,0,0-.6-1.658c-.688-.363-1.389-.706-2.1-1.035a1.472,1.472,0,0,0-.614.441l-2.062,2.692a1.809,1.809,0,0,1-1.918.565l-.173-.057a1.722,1.722,0,0,1-1.134.034l-1.54-.508a1.785,1.785,0,0,1-1.191-1.6l-.016-3.375a1.61,1.61,0,0,0-1.119-1.463c-.2-.042-.4-.082-.593-.122l-1.088-.2a1.589,1.589,0,0,0-.977.868l-1.261,3.151a1.805,1.805,0,0,1-1.694,1.059s-.413-.029-1-.056a1.436,1.436,0,0,1-.31.034s-1.342-.1-2.653-.1h-.054a4.188,4.188,0,0,1-.446-1.189l-.926-3.245a1.6,1.6,0,0,0-1.01-1.024l-1.157.1c-.143.015-.285.033-.428.049a1.629,1.629,0,0,0-1.273,1.353l-.362,3.367a1.809,1.809,0,0,1-1.346,1.478l-1.508.345a1.686,1.686,0,0,1-1.019-.088l-.288.066a1.789,1.789,0,0,1-1.847-.748l-1.769-2.876a1.481,1.481,0,0,0-.645-.548c-.729.259-1.454.529-2.165.824a1.637,1.637,0,0,0-.756,1.591l.56,3.343a1.808,1.808,0,0,1-.9,1.787l-1.331.726a1.792,1.792,0,0,1-1.534.059,1.783,1.783,0,0,1-1.753-.3l-2.479-2.293a1.358,1.358,0,0,0-.369-.243h-.008q-1.16.8-2.271,1.673a1.636,1.636,0,0,0-.256,1.691l1.442,3.069a1.806,1.806,0,0,1-.383,1.961l-1.067,1.036a1.792,1.792,0,0,1-1.918.335,1.759,1.759,0,0,1-1.357-.037l-3.012-1.543h0a1.536,1.536,0,0,0-.373.215q-.915,1.1-1.763,2.246a1.636,1.636,0,0,0,.213,1.686l2.213,2.563a1.8,1.8,0,0,1,.158,1.989l-.159.273,8.486,4.381A29.745,29.745,0,0,1,143.1,239.15c.376,0,.748.014,1.121.028.062,0,.123-.006.186-.006a29.7,29.7,0,0,1,29.56,33.084l9.222,1.258.084-.716a1.792,1.792,0,0,1,1.323-1.49l3.3-.7a1.568,1.568,0,0,0,1.214-1.078c0-.208.008-.416.008-.625,0-.681-.018-1.357-.047-2.03A1.642,1.642,0,0,0,187.809,265.523Z" fill="#fff" opacity="0.15"></path>
      <path id="パス_38" d="M194.481,255.246c-4.518,3.239-13.941,8.275-21.1,11.794-3.331-1.028-7.91-3.22-13.42-7.828-11.89-9.945-.433-23.348-.433-23.348l.42-1.159c.955-.147,1.5-.223,1.5-.223a166.6,166.6,0,0,0,16.726-3.283c7.2-1.941,12.338-2.653,14.381-2.479s1.665,1.966.775,2.883a2.536,2.536,0,0,1-2.092.717,3.157,3.157,0,0,0-1.282-.435c-.651-.039-1.37,1.169-1.37,1.169-6.113,11.1-7.425,18.133-6.691,20.068s2.1,1.378,5.135.514,11.581-5.141,12.245-5.893.719-3.483.814-4.652,1.531-.7,2.355,1.292S202.9,249.213,194.481,255.246Z" fill="url(#linear-gradient)"></path>
      <path id="パス_39" d="M159.23,235.371l-.473-.46-1.823.521c-12.614.116-21.689,5.415-28.566,14.619-3.364.684-18.248,3.856-17.481,6.35.865,2.811,4.54,6.269,5.837,11.026.4,1.448.75,2.814,1.052,4.016-.58,1.7-1.136,3.447-1.676,5.236A29.406,29.406,0,0,0,132,295.03c.1-.2.191-.4.291-.581A17.318,17.318,0,0,1,136,290.411l-1.415,5.661a28.994,28.994,0,0,0,6.72,1.478,1.652,1.652,0,0,0,.063-1.155l1.034-10.754a105.663,105.663,0,0,1,14.531-8.054,66.748,66.748,0,0,0,12.053-7.277c-.662-.464-1.469-1.105-1.469-1.105C137.437,254.448,159.23,235.371,159.23,235.371Z" fill="url(#linear-gradient)"></path>
      <circle id="楕円形_2" cx="3.79" cy="3.79" r="3.79" transform="translate(169.642 238.734)" fill="#fff"></circle>
    </g>
  </g>
</svg>
