<?xml version="1.0" encoding="UTF-8" standalone="no"?>
<svg
   xmlns:dc="http://purl.org/dc/elements/1.1/"
   xmlns:cc="http://creativecommons.org/ns#"
   xmlns:rdf="http://www.w3.org/1999/02/22-rdf-syntax-ns#"
   xmlns:svg="http://www.w3.org/2000/svg"
   xmlns="http://www.w3.org/2000/svg"
   xmlns:sodipodi="http://sodipodi.sourceforge.net/DTD/sodipodi-0.dtd"
   xmlns:inkscape="http://www.inkscape.org/namespaces/inkscape"
   viewBox="0 0 72 72"
   version="1.1"
   id="svg849"
   inkscape:version="1.0.2 (e86c8708, 2021-01-15)"
   sodipodi:docname="app-splashscreen-foreground.svg"
   inkscape:export-filename="app-splashscreen-foreground-xxxhdpi.png"
   inkscape:export-xdpi="400"
   inkscape:export-ydpi="400">
  <defs
     id="defs843" />
  <sodipodi:namedview
     id="base"
     pagecolor="#ffffff"
     bordercolor="#666666"
     borderopacity="1.0"
     inkscape:pageopacity="0.0"
     inkscape:pageshadow="2"
     inkscape:zoom="7.9195959"
     inkscape:cx="32.392965"
     inkscape:cy="48.306673"
     inkscape:document-units="pt"
     inkscape:current-layer="layer1"
     inkscape:document-rotation="0"
     showgrid="false"
     units="pt"
     inkscape:window-width="1663"
     inkscape:window-height="1174"
     inkscape:window-x="2240"
     inkscape:window-y="0"
     inkscape:window-maximized="0"
     lock-margins="false"
     scale-x="1" />
  <metadata
     id="metadata846">
    <rdf:RDF>
      <cc:Work
         rdf:about="">
        <dc:format>image/svg+xml</dc:format>
        <dc:type
           rdf:resource="http://purl.org/dc/dcmitype/StillImage" />
        <dc:title></dc:title>
      </cc:Work>
    </rdf:RDF>
  </metadata>
  <g
     inkscape:label="レイヤー 1"
     inkscape:groupmode="layer"
     id="layer1">
    <g
       id="g844"
       transform="matrix(1.1604576,0,0,1.1604576,-22.038257,-22.034743)">
      <path
         d="M 74.794793,67.256363 C 71.498449,72.233337 66.41328,78.220132 56.300646,80.340755 44.896883,82.72826 32.396744,78.789959 25.905038,70.769096 c -6.866782,-8.489708 -4.854353,-19.0784 -2.798646,-22.879655 2.27931,-4.234034 5.986795,-6.426788 9.427399,-7.573656 0.86556,-0.281307 1.716695,-0.497697 2.517339,-0.67081 -0.238029,0.38229 -0.447207,0.764579 -0.634745,1.146868 -0.08656,0.180326 -0.01443,0.396716 0.165899,0.483272 0.05049,0.02164 0.100983,0.03607 0.158687,0.03607 0.129834,0 0.259668,-0.07213 0.324585,-0.201964 2.13505,-4.399934 8.3743,-9.18937 14.728958,-9.268713 0.201964,0 0.36065,-0.165899 0.36065,-0.367863 0,-0.194752 -0.165899,-0.353438 -0.36065,-0.353438 h -0.0072 c -0.418354,0.0072 -0.829496,0.02885 -1.240637,0.07213 3.916662,-4.205182 10.473285,-3.779615 13.185375,-3.382899 4.738945,0.692448 11.519171,4.695666 14.99584,13.690285 3.440603,8.900849 2.704877,18.768242 -1.933086,25.757645 z"
         id="path833"
         style="fill:#f2777a;fill-opacity:1;stroke-width:0.721301" />
      <path
         d="m 50.616797,28.637928 c -0.02164,0.01443 -0.04328,0.03607 -0.0577,0.0577 l -0.0072,0.01443 c -1.096377,0.620319 -2.113411,1.442602 -2.993398,2.524552 -0.02164,0.02885 -0.04328,0.0577 -0.0577,0.09377 -4.912057,0.829495 -9.391334,4.017644 -11.887034,7.479887 -0.0072,0 -0.0072,0 -0.01443,0 -0.995395,0.173112 -2.070132,0.425567 -3.173722,0.79343 -0.02164,0 -0.03607,0 -0.0577,0.0072 -0.05049,0.01443 -5.380903,1.550797 -7.847751,-1.002607 -1.118016,-1.154081 -1.6085,-2.80586 -1.341619,-4.522555 0.209177,-1.356045 0.865561,-2.553404 1.673417,-3.029463 0.08656,0.165899 0.180325,0.577041 0.259669,0.908839 0.281307,1.17572 0.699661,2.942907 2.178327,4.241248 l 0.0072,0.0072 c 0.461633,0.591466 1.074738,1.118016 1.875382,1.543583 0.05049,0.02885 0.108195,0.04328 0.165899,0.04328 0.129834,0 0.259668,-0.06492 0.324585,-0.187538 0.09377,-0.173112 0.02164,-0.396716 -0.151473,-0.490485 -3.577651,-1.911446 -2.589469,-5.806469 -2.466848,-6.246463 0.836709,-2.935693 2.459635,-4.450425 3.801254,-4.753371 -0.317372,1.283915 -0.908838,4.594685 0.836709,6.708096 1.197359,1.46424 3.253066,2.034067 6.102203,1.695056 0.02164,0 0.03607,-0.0072 0.0577,-0.02164 h 0.0072 c 0.187538,-0.0072 0.339011,-0.151473 0.353437,-0.346224 0,-0.06492 0.0577,-1.70227 -0.872773,-3.808467 -0.67081,-1.507519 -2.012429,-2.538978 -2.813073,-3.159297 -0.230816,-0.173112 -0.497697,-0.375076 -0.533762,-0.43278 -0.14426,-0.339012 0.230816,-1.283915 0.995395,-2.106198 0.555401,-0.591467 1.370471,-1.146868 1.983576,-0.930478 1.053099,0.375076 3.31077,4.594685 2.892416,8.936915 0,0.0072 0,0.0072 0,0.01443 -0.07934,0.14426 -0.0577,0.324585 0.06492,0.439993 0.07213,0.06492 0.158686,0.09377 0.245242,0.09377 0.100982,0 0.194751,-0.03607 0.266881,-0.115408 2.834712,-3.065528 3.483882,-6.722522 1.933086,-10.87 0.0072,0 0.0072,0 0.01443,0 0.641957,0 1.637352,0.295733 2.575043,0.908839 0.771792,0.497697 2.077346,1.6085 2.250458,3.411752 0,0.02164 0.0072,0.03607 0.01443,0.05049 -0.0577,0.14426 -0.02164,0.310159 0.100982,0.411141 0.151473,0.129834 0.382289,0.108195 0.504911,-0.04328 0.03607,-0.04328 0.829495,-1.017034 0.605892,-3.52716 -0.122621,-1.399323 -0.620319,-2.329801 -0.980969,-3.007824 -0.353437,-0.678022 -0.519336,-1.017033 -0.353437,-1.39211 0.310159,-0.07934 1.363258,-0.09377 2.481274,0.389503 0.923265,0.403928 2.149476,1.269489 2.769794,3.130444 0.973756,2.95012 -0.627531,5.215004 -1.731121,6.087777 z"
         id="path835"
         style="opacity:0.994;fill:#99cc99;fill-opacity:1;stroke-width:0.721301" />
    </g>
  </g>
</svg>
