<svg xmlns="http://www.w3.org/2000/svg" xmlns:xlink="http://www.w3.org/1999/xlink" width="82.019" height="94.578" viewBox="0 0 82.019 94.578"><defs><linearGradient id="a" x1="0.5" x2="0.5" y2="1" gradientUnits="objectBoundingBox"><stop offset="0" stop-color="#0089bb"></stop><stop offset="0.346" stop-color="#0089b9"></stop><stop offset="1" stop-color="#0061a2"></stop></linearGradient><linearGradient id="b" y1="0.5" x2="1" y2="0.5" gradientUnits="objectBoundingBox"><stop offset="0" stop-color="#fff"></stop><stop offset="0" stop-color="#6b7073"></stop><stop offset="0.084" stop-color="#5a5c61"></stop><stop offset="0.251" stop-color="#3f3c44"></stop><stop offset="0.424" stop-color="#2a222d"></stop><stop offset="0.602" stop-color="#1b101c"></stop><stop offset="0.789" stop-color="#110513"></stop><stop offset="1" stop-color="#0f0210"></stop></linearGradient></defs><g transform="translate(-655.235 -227.966)"><path d="M703,322.442c1.642.7.725-2.418.725-2.418L700.71,305.4s3.679-6.49,6.07-9.948a1.129,1.129,0,0,1-.246-.216l-1.324-1.617a12.308,12.308,0,0,0-1.483.685,17.815,17.815,0,0,1-2.469.794l.061,2.075a1.252,1.252,0,0,1-.84,1.171l-.346.085-1.182.261-.228.044a1.262,1.262,0,0,1-1.277-.7l-.821-1.872c-1.37.254-2.826.468-4.265.589l-.428,1.726a1.249,1.249,0,0,1-1.155.9l-.267-.01-1.295-.071-.215-.018a1.261,1.261,0,0,1-1.047-1.022l-.217-1.53a10.951,10.951,0,0,1-1.943-.4,6.872,6.872,0,0,1-1.379-.6,4.034,4.034,0,0,1-.542-.841c-.009.014-.021.027-.029.042l-1.3,2.285a1.248,1.248,0,0,1-1.291.57q-.936-.294-1.849-.639a1.274,1.274,0,0,1-.645-1.227l.346-2.616a1.409,1.409,0,0,0-.741-1.365l-1.109-.56a1.381,1.381,0,0,0-1.527.222l-1.859,1.847a1.249,1.249,0,0,1-1.147.3c.754,1.3,1.581,2.573,2.469,3.823l-.129.278s.5,6.557.838,8.07.67,1.513,2.011,1.177c.926-.232,3.287-.624,4.662-.845a116.9,116.9,0,0,0,19.474,15.64C702.406,322.1,702.71,322.275,703,322.442Z" fill="url(#a)"></path><path d="M691.829,293.644a30.211,30.211,0,1,1,30.212-30.211A30.245,30.245,0,0,1,691.829,293.644Zm-.124-53.1a22.762,22.762,0,1,0,22.763,22.762A22.788,22.788,0,0,0,691.705,240.547Z" fill="gray"></path><path d="M726.626,262.105a1.274,1.274,0,0,0-.986-1.049l-2.588-.459a1.4,1.4,0,0,1-1.072-1.123l-.209-1.342a1.392,1.392,0,0,1,.678-1.394l2.327-1.22a1.254,1.254,0,0,0,.606-1.331c-.018-.063-.034-.127-.052-.191l-.349-1.159c-.037-.117-.075-.233-.113-.349a1.261,1.261,0,0,0-1.232-.759l-2.621.256a1.4,1.4,0,0,1-1.338-.79l-.56-1.22a1.388,1.388,0,0,1,.274-1.524l1.911-1.8a1.256,1.256,0,0,0,.27-1.346q-.516-.856-1.075-1.683a1.273,1.273,0,0,0-1.329-.32l-2.459.956a1.4,1.4,0,0,1-1.5-.4l-.852-1a1.39,1.39,0,0,1-.146-1.542l1.353-2.249a1.258,1.258,0,0,0-.084-1.347q-.751-.712-1.543-1.379a1.275,1.275,0,0,0-1.344.065l-2.106,1.581a1.405,1.405,0,0,1-1.554.02l-1.068-.721a1.388,1.388,0,0,1-.556-1.446l.7-2.531a1.26,1.26,0,0,0-.466-1.289q-.881-.465-1.791-.884a1.265,1.265,0,0,0-1.334.4l-1.6,2.093a1.407,1.407,0,0,1-1.491.439l-1.2-.4a1.388,1.388,0,0,1-.926-1.241l-.012-2.625a1.253,1.253,0,0,0-.871-1.138l-.461-.1-.954-.175c-.14-.024-.28-.048-.421-.07a1.266,1.266,0,0,0-1.247.747l-.981,2.451a1.405,1.405,0,0,1-1.317.824s-1.043-.076-2.063-.076h-.042a3.2,3.2,0,0,1-.347-.924l-.72-2.524a1.254,1.254,0,0,0-1.169-.863l-.276.018-1.257.111-.333.038a1.266,1.266,0,0,0-.99,1.052l-.282,2.619a1.4,1.4,0,0,1-1.046,1.149l-1.173.268a1.39,1.39,0,0,1-1.436-.581L680.42,230.4a1.256,1.256,0,0,0-1.28-.535q-.973.339-1.922.732a1.271,1.271,0,0,0-.587,1.238l.435,2.6a1.409,1.409,0,0,1-.7,1.39l-1.035.564a1.392,1.392,0,0,1-1.54-.171l-1.928-1.783a1.261,1.261,0,0,0-1.309-.205q-.9.624-1.767,1.3a1.274,1.274,0,0,0-.2,1.316l1.121,2.387a1.4,1.4,0,0,1-.3,1.524l-.83.806a1.4,1.4,0,0,1-1.531.249l-2.342-1.2a1.266,1.266,0,0,0-1.309.15q-.713.851-1.371,1.747a1.271,1.271,0,0,0,.166,1.311l1.721,1.993a1.4,1.4,0,0,1,.123,1.547l-.58.993a1.4,1.4,0,0,1-1.409.651l-2.582-.524a1.269,1.269,0,0,0-1.243.528c-.294.65-.566,1.312-.821,1.982a1.268,1.268,0,0,0,.505,1.257l2.194,1.454a1.4,1.4,0,0,1,.536,1.457l-.29,1.112a1.4,1.4,0,0,1-1.181,1.007l-2.625.193a1.261,1.261,0,0,0-1.074.919q-.047.315-.089.632l-.069.579q-.044.381-.079.764a1.262,1.262,0,0,0,.826,1.154l2.505.808a1.217,1.217,0,0,1,.9,1v.354c0,.678.019,1.056.019,1.056a1.388,1.388,0,0,1-.858,1.289l-2.481.895a1.267,1.267,0,0,0-.789,1.177q.054.443.12.883l.037.247c.044.282.091.564.142.844a1.257,1.257,0,0,0,1.1.873l2.63.1a1.392,1.392,0,0,1,1.211.967l.33,1.122a1.4,1.4,0,0,1-.488,1.475l-2.148,1.531a1.272,1.272,0,0,0-.464,1.273q.414.993.885,1.954a1.263,1.263,0,0,0,1.25.472l2.559-.611a1.4,1.4,0,0,1,1.428.605l.631,1.006a1.405,1.405,0,0,1-.072,1.552l-1.655,2.054a1.272,1.272,0,0,0-.116,1.328c.448.57.916,1.125,1.4,1.666a1.262,1.262,0,0,0,1.318.109l2.294-1.275a1.39,1.39,0,0,1,1.536.2l.895.817a1.408,1.408,0,0,1,.348,1.516l-1.038,2.422a1.277,1.277,0,0,0,.244,1.312q.863.633,1.763,1.217a1.261,1.261,0,0,0,1.314-.244l1.864-1.846a1.389,1.389,0,0,1,1.533-.223l1.111.56a1.406,1.406,0,0,1,.744,1.365l-.347,2.617a1.273,1.273,0,0,0,.647,1.226q.916.344,1.855.639a1.253,1.253,0,0,0,1.294-.57L682.8,295a1.392,1.392,0,0,1,1.416-.629l1.251.243a1.4,1.4,0,0,1,1.085,1.112l.371,2.61a1.264,1.264,0,0,0,1.05,1.022l.216.018,1.3.071.268.01a1.252,1.252,0,0,0,1.158-.9l.633-2.546a1.389,1.389,0,0,1,1.194-.987l1.3-.1a1.409,1.409,0,0,1,1.345.78l1.062,2.413a1.266,1.266,0,0,0,1.281.7l.229-.044,1.185-.261.348-.085a1.253,1.253,0,0,0,.842-1.171l-.077-2.622a1.391,1.391,0,0,1,.882-1.274l1.249-.462a1.4,1.4,0,0,1,1.505.385l1.672,2.036a1.265,1.265,0,0,0,1.347.358q.867-.436,1.707-.917a1.258,1.258,0,0,0,.439-1.316l-.784-2.509a1.4,1.4,0,0,1,.506-1.466l1.09-.793a1.4,1.4,0,0,1,1.552-.036l2.159,1.508a1.266,1.266,0,0,0,1.368,0c.494-.449.974-.914,1.441-1.39a1.262,1.262,0,0,0,.04-1.353L715,285.2a1.392,1.392,0,0,1,.092-1.547l.844-1.069a1.4,1.4,0,0,1,1.486-.453l2.483.869a1.264,1.264,0,0,0,1.333-.39q.506-.809.97-1.645a1.26,1.26,0,0,0-.3-1.369l-1.972-1.737a1.4,1.4,0,0,1-.331-1.515l.526-1.268a1.4,1.4,0,0,1,1.306-.837l2.626.167a1.255,1.255,0,0,0,1.21-.822c.026-.086.05-.173.074-.26l.3-1.17c.02-.08.04-.161.059-.242a1.258,1.258,0,0,0-.652-1.324l-2.372-1.142a1.4,1.4,0,0,1-.73-1.371l.159-1.357a1.393,1.393,0,0,1,1.03-1.159l2.57-.547a1.218,1.218,0,0,0,.944-.838c0-.162.006-.324.006-.486C726.663,263.154,726.649,262.629,726.626,262.105Zm-35.755,24.716a23.138,23.138,0,1,1,23.139-23.137A23.164,23.164,0,0,1,690.871,286.821Z" fill="url(#b)"></path><path d="M725.639,261.061l-2.588-.459a1.4,1.4,0,0,1-1.072-1.123l-.209-1.342a1.392,1.392,0,0,1,.678-1.394l2.327-1.22a1.253,1.253,0,0,0,.606-1.331c-.017-.063-.034-.127-.052-.191l-.349-1.159c-.037-.117-.075-.233-.113-.349a1.266,1.266,0,0,0-.762-.689l-2.074.2a1.218,1.218,0,0,1-.488-.07l-.529.052a1.4,1.4,0,0,1-1.338-.79l-.56-1.22a1.387,1.387,0,0,1,.275-1.524l1.91-1.8a1.256,1.256,0,0,0,.27-1.346q-.514-.856-1.075-1.683a1.213,1.213,0,0,0-.4-.267l-2.369.921a1.361,1.361,0,0,1-.963-.039l-.053.021a1.405,1.405,0,0,1-1.5-.4l-.852-1a1.39,1.39,0,0,1-.145-1.542l1.352-2.249a1.258,1.258,0,0,0-.084-1.347q-.752-.713-1.543-1.379c-.03-.017-.065-.023-.1-.037a1.052,1.052,0,0,0-.231.119l-2.106,1.581a6.39,6.39,0,0,1-2.57,0l-1.069-.721a1.388,1.388,0,0,1-.556-1.446l.7-2.531a1.26,1.26,0,0,0-.466-1.289c-.535-.283-1.08-.549-1.631-.805a1.14,1.14,0,0,0-.477.343l-1.6,2.094a1.407,1.407,0,0,1-1.491.439l-.135-.045a1.339,1.339,0,0,1-.882.027l-1.2-.4a1.388,1.388,0,0,1-.926-1.241l-.012-2.625a1.254,1.254,0,0,0-.871-1.138c-.153-.032-.307-.064-.461-.094l-.845-.156a1.235,1.235,0,0,0-.761.675l-.98,2.45a1.4,1.4,0,0,1-1.318.824s-.32-.023-.775-.043a1.111,1.111,0,0,1-.241.026s-1.043-.076-2.063-.076h-.042a3.2,3.2,0,0,1-.347-.924l-.72-2.524a1.246,1.246,0,0,0-.786-.8l-.9.079-.332.038a1.265,1.265,0,0,0-.99,1.053l-.282,2.618a1.4,1.4,0,0,1-1.046,1.149l-1.173.269a1.319,1.319,0,0,1-.793-.069l-.224.051a1.39,1.39,0,0,1-1.436-.581l-1.376-2.237a1.149,1.149,0,0,0-.5-.426c-.567.2-1.13.411-1.683.641a1.271,1.271,0,0,0-.588,1.237l.436,2.6a1.41,1.41,0,0,1-.7,1.39l-1.035.565a6.171,6.171,0,0,1-2.557-.189l-1.928-1.783a1.066,1.066,0,0,0-.287-.189h-.005q-.9.624-1.767,1.3a1.272,1.272,0,0,0-.2,1.315l1.121,2.387a1.406,1.406,0,0,1-.3,1.525l-.83.806a1.4,1.4,0,0,1-1.492.26,1.365,1.365,0,0,1-1.055-.029l-2.343-1.2h0a1.209,1.209,0,0,0-.29.167q-.713.852-1.371,1.747a1.27,1.27,0,0,0,.165,1.311l1.722,1.993a1.4,1.4,0,0,1,.123,1.548l-.124.212,6.6,3.406a23.131,23.131,0,0,1,19.336-10.453c.293,0,.582.011.872.022.049,0,.1-.005.145-.005A23.108,23.108,0,0,1,714.876,266.3l7.171.978.066-.556a1.391,1.391,0,0,1,1.029-1.159l2.57-.547a1.219,1.219,0,0,0,.944-.838c0-.162.006-.324.006-.486,0-.53-.013-1.055-.037-1.579A1.274,1.274,0,0,0,725.639,261.061Z" fill="#fff" opacity="0.15"></path><path d="M730.828,253.069c-3.514,2.518-10.842,6.435-16.409,9.172a30.7,30.7,0,0,1-10.437-6.088c-9.247-7.734-.336-18.158-.336-18.158l.326-.9c.743-.115,1.169-.173,1.169-.173a129.625,129.625,0,0,0,13.007-2.553c5.6-1.51,9.595-2.064,11.184-1.928s1.3,1.528.6,2.242a1.975,1.975,0,0,1-1.627.557,2.453,2.453,0,0,0-1-.338c-.507-.031-1.066.909-1.066.909-4.753,8.635-5.774,14.1-5.2,15.606s1.635,1.073,3.993.4,9.007-4,9.523-4.583.559-2.708.633-3.618,1.191-.544,1.832,1S737.373,248.377,730.828,253.069Z" fill="url(#a)"></path><path d="M703.414,237.612l-.368-.358-1.418.4c-9.809.091-16.867,4.212-22.215,11.37-2.616.531-14.191,3-13.6,4.938.673,2.186,3.531,4.875,4.54,8.574.307,1.127.582,2.189.818,3.124-.452,1.318-.884,2.68-1.3,4.072a22.86,22.86,0,0,0,12.363,14.271c.074-.157.149-.312.227-.452a13.434,13.434,0,0,1,2.886-3.14l-1.1,4.4a22.562,22.562,0,0,0,5.227,1.149,1.287,1.287,0,0,0,.049-.9l.8-8.364a82.24,82.24,0,0,1,11.3-6.263,51.92,51.92,0,0,0,9.374-5.66c-.515-.36-1.142-.859-1.142-.859C686.466,252.448,703.414,237.612,703.414,237.612Z" fill="url(#a)"></path><circle cx="2.948" cy="2.948" r="2.948" transform="translate(711.511 240.228)" fill="#fff"></circle></g></svg>